<mxfile host="app.diagrams.net" modified="2023-07-27T15:10:05.470Z" agent="Mozilla/5.0 (Macintosh; Intel Mac OS X 10_15_7) AppleWebKit/537.36 (KHTML, like Gecko) Chrome/117.0.0.0 Safari/537.36" etag="4R37SHg4sdHRId7nQF9a" version="21.6.5" type="github">
  <diagram name="Page-1" id="97916047-d0de-89f5-080d-49f4d83e522f">
    <mxGraphModel dx="3411" dy="1740" grid="1" gridSize="10" guides="1" tooltips="1" connect="1" arrows="1" fold="1" page="1" pageScale="1.5" pageWidth="1169" pageHeight="827" background="none" math="0" shadow="0">
      <root>
        <mxCell id="0" />
        <mxCell id="1" parent="0" />
        <mxCell id="pJbpMtdxEHfw4EG9Y44V-57" value="" style="edgeStyle=orthogonalEdgeStyle;rounded=0;orthogonalLoop=1;jettySize=auto;html=1;" edge="1" parent="1" source="pJbpMtdxEHfw4EG9Y44V-55" target="pJbpMtdxEHfw4EG9Y44V-56">
          <mxGeometry relative="1" as="geometry" />
        </mxCell>
        <mxCell id="pJbpMtdxEHfw4EG9Y44V-55" value="&lt;span style=&quot;font-size: 24px;&quot;&gt;样品收集&lt;/span&gt;" style="rounded=1;whiteSpace=wrap;html=1;fillColor=#D1FF66;" vertex="1" parent="1">
          <mxGeometry x="630.0000000000002" y="40" width="120" height="60" as="geometry" />
        </mxCell>
        <mxCell id="pJbpMtdxEHfw4EG9Y44V-59" value="" style="edgeStyle=orthogonalEdgeStyle;rounded=0;orthogonalLoop=1;jettySize=auto;html=1;" edge="1" parent="1" source="pJbpMtdxEHfw4EG9Y44V-56" target="pJbpMtdxEHfw4EG9Y44V-58">
          <mxGeometry relative="1" as="geometry" />
        </mxCell>
        <mxCell id="pJbpMtdxEHfw4EG9Y44V-56" value="&lt;font style=&quot;font-size: 24px;&quot;&gt;RNA提取&lt;/font&gt;" style="whiteSpace=wrap;html=1;fillColor=#D1FF66;rounded=1;" vertex="1" parent="1">
          <mxGeometry x="630.0000000000002" y="180" width="120" height="60" as="geometry" />
        </mxCell>
        <mxCell id="pJbpMtdxEHfw4EG9Y44V-70" style="edgeStyle=orthogonalEdgeStyle;rounded=0;orthogonalLoop=1;jettySize=auto;html=1;entryX=0;entryY=0.5;entryDx=0;entryDy=0;" edge="1" parent="1" source="pJbpMtdxEHfw4EG9Y44V-58" target="pJbpMtdxEHfw4EG9Y44V-66">
          <mxGeometry relative="1" as="geometry" />
        </mxCell>
        <mxCell id="pJbpMtdxEHfw4EG9Y44V-71" style="edgeStyle=orthogonalEdgeStyle;rounded=0;orthogonalLoop=1;jettySize=auto;html=1;entryX=0;entryY=0.5;entryDx=0;entryDy=0;" edge="1" parent="1" source="pJbpMtdxEHfw4EG9Y44V-58" target="pJbpMtdxEHfw4EG9Y44V-60">
          <mxGeometry relative="1" as="geometry" />
        </mxCell>
        <mxCell id="pJbpMtdxEHfw4EG9Y44V-72" style="edgeStyle=orthogonalEdgeStyle;rounded=0;orthogonalLoop=1;jettySize=auto;html=1;entryX=0;entryY=0.5;entryDx=0;entryDy=0;" edge="1" parent="1" source="pJbpMtdxEHfw4EG9Y44V-58" target="pJbpMtdxEHfw4EG9Y44V-63">
          <mxGeometry relative="1" as="geometry" />
        </mxCell>
        <mxCell id="pJbpMtdxEHfw4EG9Y44V-75" value="" style="edgeStyle=orthogonalEdgeStyle;rounded=0;orthogonalLoop=1;jettySize=auto;html=1;" edge="1" parent="1" source="pJbpMtdxEHfw4EG9Y44V-58" target="pJbpMtdxEHfw4EG9Y44V-74">
          <mxGeometry relative="1" as="geometry" />
        </mxCell>
        <mxCell id="pJbpMtdxEHfw4EG9Y44V-58" value="&lt;font style=&quot;font-size: 24px;&quot;&gt;RNA质控&lt;/font&gt;" style="whiteSpace=wrap;html=1;fillColor=#D1FF66;rounded=1;" vertex="1" parent="1">
          <mxGeometry x="630.0000000000002" y="320" width="120" height="60" as="geometry" />
        </mxCell>
        <mxCell id="pJbpMtdxEHfw4EG9Y44V-60" value="&lt;font style=&quot;font-size: 24px;&quot;&gt;RNA纯度检测&lt;/font&gt;&lt;span style=&quot;caret-color: rgb(0, 0, 0); font-family: &amp;quot;Microsoft YaHei&amp;quot;, ΢���ź�, �ź�����, ������, ����, &amp;quot;Microsoft JhengHei&amp;quot;, ����ϸ��, STHeiti, MingLiu; font-size: 14px; text-align: left; text-size-adjust: auto; background-color: rgb(255, 255, 255);&quot;&gt;&lt;/span&gt;" style="whiteSpace=wrap;html=1;fillColor=#66CC00;rounded=1;" vertex="1" parent="1">
          <mxGeometry x="820" y="320" width="150" height="60" as="geometry" />
        </mxCell>
        <mxCell id="pJbpMtdxEHfw4EG9Y44V-63" value="&lt;font style=&quot;font-size: 24px;&quot;&gt;RNA浓度检测&lt;/font&gt;" style="whiteSpace=wrap;html=1;fillColor=#66CC00;rounded=1;" vertex="1" parent="1">
          <mxGeometry x="820" y="400" width="150" height="60" as="geometry" />
        </mxCell>
        <mxCell id="pJbpMtdxEHfw4EG9Y44V-66" value="&lt;font style=&quot;font-size: 24px;&quot;&gt;琼脂糖电泳&lt;/font&gt;" style="whiteSpace=wrap;html=1;fillColor=#66CC00;rounded=1;" vertex="1" parent="1">
          <mxGeometry x="820" y="240" width="150" height="60" as="geometry" />
        </mxCell>
        <mxCell id="pJbpMtdxEHfw4EG9Y44V-77" value="" style="edgeStyle=orthogonalEdgeStyle;rounded=0;orthogonalLoop=1;jettySize=auto;html=1;" edge="1" parent="1" source="pJbpMtdxEHfw4EG9Y44V-74" target="pJbpMtdxEHfw4EG9Y44V-76">
          <mxGeometry relative="1" as="geometry" />
        </mxCell>
        <mxCell id="pJbpMtdxEHfw4EG9Y44V-74" value="&lt;font style=&quot;font-size: 24px;&quot;&gt;mRNA&lt;br&gt;分离打断&lt;/font&gt;" style="whiteSpace=wrap;html=1;fillColor=#D1FF66;rounded=1;" vertex="1" parent="1">
          <mxGeometry x="630.0000000000002" y="460" width="120" height="60" as="geometry" />
        </mxCell>
        <mxCell id="pJbpMtdxEHfw4EG9Y44V-79" value="" style="edgeStyle=orthogonalEdgeStyle;rounded=0;orthogonalLoop=1;jettySize=auto;html=1;" edge="1" parent="1" source="pJbpMtdxEHfw4EG9Y44V-76" target="pJbpMtdxEHfw4EG9Y44V-78">
          <mxGeometry relative="1" as="geometry" />
        </mxCell>
        <mxCell id="pJbpMtdxEHfw4EG9Y44V-87" value="" style="edgeStyle=orthogonalEdgeStyle;rounded=0;orthogonalLoop=1;jettySize=auto;html=1;" edge="1" parent="1" source="pJbpMtdxEHfw4EG9Y44V-76" target="pJbpMtdxEHfw4EG9Y44V-86">
          <mxGeometry relative="1" as="geometry" />
        </mxCell>
        <mxCell id="pJbpMtdxEHfw4EG9Y44V-76" value="&lt;font style=&quot;font-size: 24px;&quot;&gt;cDNA&lt;br&gt;双链合成&lt;/font&gt;" style="whiteSpace=wrap;html=1;fillColor=#D1FF66;rounded=1;" vertex="1" parent="1">
          <mxGeometry x="630.0000000000002" y="600" width="120" height="60" as="geometry" />
        </mxCell>
        <mxCell id="pJbpMtdxEHfw4EG9Y44V-81" value="" style="edgeStyle=orthogonalEdgeStyle;rounded=0;orthogonalLoop=1;jettySize=auto;html=1;" edge="1" parent="1" source="pJbpMtdxEHfw4EG9Y44V-78" target="pJbpMtdxEHfw4EG9Y44V-80">
          <mxGeometry relative="1" as="geometry" />
        </mxCell>
        <mxCell id="pJbpMtdxEHfw4EG9Y44V-78" value="&lt;font style=&quot;font-size: 24px;&quot;&gt;cDNA&lt;br&gt;末端修复&lt;/font&gt;" style="whiteSpace=wrap;html=1;fillColor=#D1FF66;rounded=1;" vertex="1" parent="1">
          <mxGeometry x="630.0000000000002" y="740" width="120" height="60" as="geometry" />
        </mxCell>
        <mxCell id="pJbpMtdxEHfw4EG9Y44V-83" value="" style="edgeStyle=orthogonalEdgeStyle;rounded=0;orthogonalLoop=1;jettySize=auto;html=1;" edge="1" parent="1" source="pJbpMtdxEHfw4EG9Y44V-80" target="pJbpMtdxEHfw4EG9Y44V-82">
          <mxGeometry relative="1" as="geometry" />
        </mxCell>
        <mxCell id="pJbpMtdxEHfw4EG9Y44V-80" value="&lt;font style=&quot;font-size: 24px;&quot;&gt;加接头&lt;/font&gt;" style="whiteSpace=wrap;html=1;fillColor=#D1FF66;rounded=1;" vertex="1" parent="1">
          <mxGeometry x="630.0000000000002" y="880" width="120" height="60" as="geometry" />
        </mxCell>
        <mxCell id="pJbpMtdxEHfw4EG9Y44V-85" value="" style="edgeStyle=orthogonalEdgeStyle;rounded=0;orthogonalLoop=1;jettySize=auto;html=1;" edge="1" parent="1" source="pJbpMtdxEHfw4EG9Y44V-82" target="pJbpMtdxEHfw4EG9Y44V-84">
          <mxGeometry relative="1" as="geometry" />
        </mxCell>
        <mxCell id="pJbpMtdxEHfw4EG9Y44V-82" value="&lt;font style=&quot;font-size: 24px;&quot;&gt;片段筛选&lt;/font&gt;" style="whiteSpace=wrap;html=1;fillColor=#D1FF66;rounded=1;" vertex="1" parent="1">
          <mxGeometry x="630.0000000000002" y="1020" width="120" height="60" as="geometry" />
        </mxCell>
        <mxCell id="pJbpMtdxEHfw4EG9Y44V-89" value="" style="edgeStyle=orthogonalEdgeStyle;rounded=0;orthogonalLoop=1;jettySize=auto;html=1;" edge="1" parent="1" source="pJbpMtdxEHfw4EG9Y44V-84" target="pJbpMtdxEHfw4EG9Y44V-88">
          <mxGeometry relative="1" as="geometry" />
        </mxCell>
        <mxCell id="pJbpMtdxEHfw4EG9Y44V-84" value="&lt;font style=&quot;font-size: 24px;&quot;&gt;PCR&lt;br&gt;文库富集&lt;/font&gt;" style="whiteSpace=wrap;html=1;fillColor=#D1FF66;rounded=1;" vertex="1" parent="1">
          <mxGeometry x="630.0000000000002" y="1160" width="120" height="60" as="geometry" />
        </mxCell>
        <mxCell id="pJbpMtdxEHfw4EG9Y44V-86" value="&lt;font style=&quot;font-size: 24px;&quot;&gt;纯化&lt;/font&gt;" style="ellipse;whiteSpace=wrap;html=1;fillColor=#FFB570;rounded=1;" vertex="1" parent="1">
          <mxGeometry x="850.0000000000002" y="590" width="80" height="80" as="geometry" />
        </mxCell>
        <mxCell id="pJbpMtdxEHfw4EG9Y44V-88" value="&lt;font style=&quot;font-size: 24px;&quot;&gt;纯化&lt;/font&gt;" style="ellipse;whiteSpace=wrap;html=1;fillColor=#FFB570;rounded=1;" vertex="1" parent="1">
          <mxGeometry x="850.0000000000002" y="1150" width="80" height="80" as="geometry" />
        </mxCell>
      </root>
    </mxGraphModel>
  </diagram>
</mxfile>
